<?xml version="1.0" encoding="utf-8"?>
<!-- Generator: Adobe Illustrator 21.0.0, SVG Export Plug-In . SVG Version: 6.00 Build 0)  -->
<svg version="1.1" id="Layer_1" xmlns="http://www.w3.org/2000/svg" xmlns:xlink="http://www.w3.org/1999/xlink" x="0px" y="0px"
	 viewBox="0 0 250.5 66" style="enable-background:new 0 0 250.5 66;" xml:space="preserve">
<g>
	<polygon points="71.1,28 71.1,28 71.1,34.9 71.1,41.7 71.1,41.7 71.1,48.6 78,48.6 78,41.7 78,41.7 78,34.9 78,28 78,28 78,21.2 
		71.1,21.2 	"/>
	<path d="M50.6,14.3h-6.9v6.9V28v0v6.9v6.9h6.9v6.9h6.9h6.9v-6.9h-6.9h-6.9v-6.9h6.9h6.9V28v0v-6.9v-6.9h-6.9H50.6z M57.4,28h-6.9
		v-6.9h6.9V28z"/>
	<polygon points="98.6,41.7 91.7,41.7 91.7,34.9 91.7,28 91.7,28 91.7,21.2 84.9,21.2 84.9,28 84.9,28 84.9,34.9 84.9,41.7 
		84.9,41.7 84.9,48.6 91.7,48.6 97.7,48.6 98.6,48.6 105.4,48.6 105.4,41.7 	"/>
	<polygon points="23.1,14.3 16.3,14.3 10.8,14.3 9.4,14.3 9.4,21.2 9.4,28 9.4,28 9.4,34.9 9.4,41.7 9.4,41.7 9.4,48.6 16.3,48.6 
		16.3,41.7 16.3,41.7 16.3,34.9 16.3,28 16.3,28 16.3,21.2 23.1,21.2 30,21.2 30,14.3 	"/>
	<polygon points="30,28 30,28 30,34.9 30,41.7 30,41.7 30,48.6 36.9,48.6 36.9,41.7 36.9,41.7 36.9,34.9 36.9,28 36.9,28 36.9,21.2 
		30,21.2 	"/>
	<rect x="71.1" y="7.5" width="6.9" height="6.9"/>
	<polygon points="105.4,21.2 105.4,14.3 98.6,14.3 91.7,14.3 91.7,21.2 98.6,21.2 	"/>
</g>
<g>
	<path d="M125,22.8h-1.6l-4.3-5.7l0,5.7h-1.7v-8.5h1.6l4.3,5.7v-5.7h1.7V22.8z"/>
	<path d="M135.5,18.6c0,2.5-1.9,4.4-4.5,4.4s-4.5-1.9-4.5-4.4s1.9-4.4,4.5-4.4S135.5,16,135.5,18.6z M128.3,18.6
		c0,1.7,1.1,2.8,2.7,2.8c1.6,0,2.7-1.1,2.7-2.8c0-1.7-1.1-2.8-2.7-2.8C129.4,15.8,128.3,16.9,128.3,18.6z"/>
	<path d="M140.6,14.3c2,0,3.1,1,3.1,2.6c0,1.4-1,2.4-2.6,2.5l2.6,3.4h-2.1l-2.5-3.4h-0.5v3.4H137v-8.5H140.6z M138.7,15.9v2.1h1.9
		c0.9,0,1.4-0.3,1.4-1.1c0-0.7-0.5-1-1.4-1H138.7z"/>
	<path d="M148.8,14.3c2.7,0,4.4,1.7,4.4,4.3s-1.8,4.3-4.4,4.3h-3.5v-8.5H148.8z M147,15.9v5.3h1.8c1.8,0,2.7-1.1,2.7-2.7
		c0-1.6-0.9-2.7-2.7-2.7H147z"/>
	<path d="M156.4,22.8h-1.7v-8.5h1.7V22.8z"/>
	<path d="M166.1,16l-1.5,0.9c-0.5-0.7-1.3-1.2-2.2-1.2c-1.5,0-2.7,1.1-2.7,2.8c0,1.7,1.2,2.8,2.7,2.8c0.9,0,1.7-0.4,2.2-1.2l1.4,1
		c-0.8,1.1-2,1.8-3.6,1.8c-2.6,0-4.5-1.9-4.5-4.4s1.9-4.4,4.5-4.4C164,14.1,165.4,14.9,166.1,16z"/>
	<path d="M123.7,35.7h-6.4v-8.5h6.3v1.6h-4.6v1.9h4.4v1.6h-4.4v2h4.7V35.7z"/>
	<path d="M128.8,33.2h-3.6v-1.4h3.6V33.2z"/>
	<path d="M132.1,35.7h-1.7v-8.5h1.7V35.7z"/>
	<path d="M141.7,35.7h-1.6l-4.3-5.7l0,5.7H134v-8.5h1.6l4.3,5.7v-5.7h1.7V35.7z"/>
	<path d="M149.6,32.3h-4.3v3.5h-1.7v-8.5h6.3v1.6h-4.6v1.9h4.3V32.3z"/>
	<path d="M155,27.2c2,0,3.1,1,3.1,2.6c0,1.4-1,2.4-2.6,2.5l2.6,3.4h-2.1l-2.5-3.4h-0.5v3.4h-1.7v-8.5H155z M153.1,28.8v2.1h1.9
		c0.9,0,1.4-0.3,1.4-1.1c0-0.7-0.5-1-1.4-1H153.1z"/>
	<path d="M167.5,35.7h-1.8l-0.7-2h-3.6l-0.7,2h-1.8l3.3-8.5h2.1L167.5,35.7z M161.9,32.2h2.5l-1.2-3.3L161.9,32.2z"/>
	<path d="M174.4,29.4c-0.7-0.4-1.5-0.7-2.4-0.7c-1,0-1.6,0.4-1.6,1c0,0.6,0.7,0.8,1.8,1l0.5,0.1c1.5,0.2,2.7,0.9,2.7,2.4
		c0,1.9-1.7,2.8-3.5,2.8c-1.3,0-2.7-0.4-3.6-1.1l0.9-1.4c0.6,0.5,1.6,0.9,2.7,0.9c0.9,0,1.7-0.4,1.7-1c0-0.6-0.6-0.8-1.8-1l-0.5-0.1
		c-1.5-0.2-2.6-0.9-2.6-2.4c0-1.8,1.6-2.7,3.4-2.7c1.2,0,2.2,0.3,3.3,0.9L174.4,29.4z"/>
	<path d="M183,28.8h-2.6v6.9h-1.7v-6.9h-2.6v-1.6h7V28.8z"/>
	<path d="M187.8,27.2c2,0,3.1,1,3.1,2.6c0,1.4-1,2.4-2.6,2.5l2.6,3.4h-2.1l-2.5-3.4h-0.5v3.4h-1.7v-8.5H187.8z M185.9,28.8v2.1h1.9
		c0.9,0,1.4-0.3,1.4-1.1c0-0.7-0.5-1-1.4-1H185.9z"/>
	<path d="M199.7,32.3c0,2.4-1.5,3.6-3.7,3.6c-2.2,0-3.7-1.2-3.7-3.6v-5.1h1.7v5c0,1.4,0.8,2,2,2c1.2,0,2-0.6,2-2v-5h1.7V32.3z"/>
	<path d="M209.3,29l-1.5,0.9c-0.5-0.7-1.3-1.2-2.2-1.2c-1.5,0-2.7,1.1-2.7,2.8c0,1.7,1.2,2.8,2.7,2.8c0.9,0,1.7-0.4,2.2-1.2l1.4,1
		c-0.8,1.1-2,1.8-3.6,1.8c-2.6,0-4.5-1.9-4.5-4.4s1.9-4.4,4.5-4.4C207.2,27,208.6,27.8,209.3,29z"/>
	<path d="M216.9,28.8h-2.6v6.9h-1.7v-6.9H210v-1.6h7V28.8z"/>
	<path d="M225.3,32.3c0,2.4-1.5,3.6-3.7,3.6c-2.2,0-3.7-1.2-3.7-3.6v-5.1h1.7v5c0,1.4,0.8,2,2,2s2-0.6,2-2v-5h1.7V32.3z"/>
	<path d="M230.8,27.2c2,0,3.1,1,3.1,2.6c0,1.4-1,2.4-2.6,2.5l2.6,3.4h-2.1l-2.5-3.4h-0.5v3.4h-1.7v-8.5H230.8z M228.9,28.8v2.1h1.9
		c0.9,0,1.4-0.3,1.4-1.1c0-0.7-0.5-1-1.4-1H228.9z"/>
	<path d="M241.8,35.7h-6.4v-8.5h6.3v1.6h-4.6v1.9h4.4v1.6h-4.4v2h4.7V35.7z"/>
	<path d="M125.1,41.9l-1.5,0.9c-0.5-0.7-1.3-1.2-2.2-1.2c-1.5,0-2.7,1.1-2.7,2.8c0,1.7,1.2,2.8,2.7,2.8c0.9,0,1.7-0.4,2.2-1.2l1.4,1
		c-0.8,1.1-2,1.8-3.6,1.8c-2.6,0-4.5-1.9-4.5-4.4s1.9-4.4,4.5-4.4C123,40,124.4,40.7,125.1,41.9z"/>
	<path d="M135.1,44.4c0,2.5-1.9,4.4-4.5,4.4s-4.5-1.9-4.5-4.4s1.9-4.4,4.5-4.4S135.1,41.8,135.1,44.4z M127.9,44.4
		c0,1.7,1.1,2.8,2.7,2.8c1.6,0,2.7-1.1,2.7-2.8c0-1.7-1.1-2.8-2.7-2.8C129.1,41.6,127.9,42.7,127.9,44.4z"/>
	<path d="M142.8,48.6h-6.2v-8.5h1.7v6.9h4.5V48.6z"/>
	<path d="M150.2,48.6H144v-8.5h1.7v6.9h4.5V48.6z"/>
	<path d="M159.2,48.6h-1.8l-0.7-2H153l-0.7,2h-1.8l3.3-8.5h2.1L159.2,48.6z M153.6,45.1h2.5l-1.2-3.3L153.6,45.1z"/>
	<path d="M163.8,40.1c2,0,3.2,0.7,3.2,2.4c0,0.9-0.5,1.5-1.2,1.8c0.8,0.3,1.4,1,1.4,1.9c0,1.6-1.2,2.4-3.2,2.4h-3.7v-8.5H163.8z
		 M162,41.6v2h1.7c0.8,0,1.5-0.2,1.5-1c0-0.8-0.7-1-1.5-1H162z M162,45.1v2l1.9,0c0.9,0,1.5-0.2,1.5-1c0-0.8-0.6-1-1.5-1H162z"/>
	<path d="M177.2,44.4c0,2.5-1.9,4.4-4.5,4.4s-4.5-1.9-4.5-4.4s1.9-4.4,4.5-4.4S177.2,41.8,177.2,44.4z M170.1,44.4
		c0,1.7,1.1,2.8,2.7,2.8c1.6,0,2.7-1.1,2.7-2.8c0-1.7-1.1-2.8-2.7-2.8C171.2,41.6,170.1,42.7,170.1,44.4z"/>
	<path d="M182.4,40.1c2,0,3.1,1,3.1,2.6c0,1.4-1,2.4-2.6,2.5l2.6,3.4h-2.1l-2.5-3.4h-0.5v3.4h-1.7v-8.5H182.4z M180.5,41.7v2.1h1.9
		c0.9,0,1.4-0.3,1.4-1.1c0-0.7-0.5-1-1.4-1H180.5z"/>
	<path d="M194.9,48.6h-1.8l-0.7-2h-3.6l-0.7,2h-1.8l3.3-8.5h2.1L194.9,48.6z M189.3,45.1h2.5l-1.2-3.3L189.3,45.1z"/>
	<path d="M202.2,41.7h-2.6v6.9h-1.7v-6.9h-2.6v-1.6h7V41.7z"/>
	<path d="M205.1,48.6h-1.7v-8.5h1.7V48.6z"/>
	<path d="M215.5,44.4c0,2.5-1.9,4.4-4.5,4.4s-4.5-1.9-4.5-4.4s1.9-4.4,4.5-4.4S215.5,41.8,215.5,44.4z M208.3,44.4
		c0,1.7,1.1,2.8,2.7,2.8c1.6,0,2.7-1.1,2.7-2.8c0-1.7-1.1-2.8-2.7-2.8C209.5,41.6,208.3,42.7,208.3,44.4z"/>
	<path d="M224.7,48.6h-1.6l-4.3-5.7l0,5.7H217v-8.5h1.6l4.3,5.7v-5.7h1.7V48.6z"/>
</g>
</svg>
